<?xml version="1.0" encoding="utf-8"?>
<!-- Generator: Adobe Illustrator 25.2.0, SVG Export Plug-In . SVG Version: 6.00 Build 0)  -->
<svg version="1.1" xmlns="http://www.w3.org/2000/svg" xmlns:xlink="http://www.w3.org/1999/xlink" x="0px" y="0px"
	 viewBox="0 0 1060 300" style="enable-background:new 0 0 1060 300;" xml:space="preserve">
<style type="text/css">
	.st0{fill:#181C1E;}
	.st1{fill:#A5C73A;}
</style>
<g id="Layer_2">
	<rect class="st0" width="1060" height="300"/>
</g>
<g id="Layer_1">
	<g>
		<path class="st1" d="M534.4,75.6l-4.4,5.1l-4.4-5.1c-2-2.3-2.2-5.6-0.6-8.2l5-7.9l5,7.9C536.6,70,536.3,73.3,534.4,75.6z"/>
		<path class="st1" d="M561.9,102.7l-0.2,0.2l0.2,0.1c-2,11.3-11,16.2-16.1,18.7c-5.8,2.8-15.8,8.5-15.8,15.2
			c0-6.7-10-12.4-15.8-15.2c-5.1-2.4-14.1-7.4-16.1-18.7l0.2-0.1l-0.2-0.2c-0.2-1.5-0.4-2.9-0.3-4.4c0-14.7,11.6-21.1,18.9-21.1
			c5.5,0,9.5,3.3,11.1,4.9c0.5,0.5,0.6,1.2,0.2,1.8l-1.2,1.8c-0.2,0.3-0.6,0.4-1,0.2c-0.1,0-0.1-0.1-0.2-0.2
			c-1.5-1.9-6.1-6.4-14.1-3.4c-6,2.2-9.7,7.8-9.7,14.4S506,113,516.7,117c10.7,4,13.3,10.4,13.3,10.4s2.6-6.4,13.3-10.4
			s14.8-13.6,14.8-20.2s-3.7-12.1-9.7-14.3c-8-3-12.5,1.5-14.1,3.4c-0.2,0.3-0.7,0.4-1,0.1c-0.1,0-0.1-0.1-0.2-0.2l-1.2-1.8
			c-0.4-0.6-0.3-1.3,0.2-1.8c1.6-1.6,5.6-4.9,11.1-4.9c7.3,0,18.9,6.4,18.9,21.1C562.3,99.8,562.1,101.3,561.9,102.7z"/>
		<path class="st1" d="M498.3,102.9l-0.2,0.1c0-0.1,0-0.2-0.1-0.3L498.3,102.9z"/>
		<path class="st1" d="M525.3,112.4c-9.1-8-11.2-13.3-9.1-18.1c2.1-4.8,7.8-2.9,7.8-2.9c-4.9-5.1-9-4.1-11.3-2.8
			c-1.4,0.8-2.5,2-3.2,3.4c-1.9,4-0.2,7.8,2.7,11c-1.8,0.1-4.1,0.9-5.4,3.6c0,0,1.3-1.4,3.2-1.6c1.8-0.2,3.6-0.3,5.1,0.8l0,0
			C519.7,109.8,525.3,112.4,525.3,112.4z"/>
		<path class="st1" d="M502.4,79.8c-0.3-2.3-2.2-4.1-4.6-4.2l-5.9-0.2l1.4,4.8c0.7,2.5,3.2,4.1,5.7,3.8l3.8-0.5L502.4,79.8z"/>
		<path class="st1" d="M498.3,102.9l-0.2,0.1l-2.3,2c-1.2,1-2.9,1.1-4.2,0.3l-2.9-1.9l3-2.2c1.2-0.9,2.9-0.9,4.1,0l2.2,1.6
			L498.3,102.9z"/>
		<path class="st1" d="M561.9,102.7c0,0.1,0,0.2-0.1,0.3l-0.2-0.1L561.9,102.7z"/>
		<path class="st1" d="M534.7,112.4c9.1-8,11.2-13.3,9.1-18.1s-7.8-2.9-7.8-2.9c4.9-5.1,9-4.1,11.3-2.8c1.4,0.8,2.5,2,3.2,3.4
			c1.9,4,0.2,7.8-2.7,11c1.8,0.1,4.1,0.9,5.4,3.6c0,0-1.3-1.4-3.2-1.6c-1.8-0.2-3.6-0.3-5.1,0.8l0,0
			C540.3,109.8,534.7,112.4,534.7,112.4z"/>
		<path class="st1" d="M557.6,79.8c0.3-2.3,2.2-4.1,4.6-4.2l5.9-0.2l-1.4,4.8c-0.7,2.5-3.2,4.1-5.7,3.8l-3.8-0.5L557.6,79.8z"/>
		<path class="st1" d="M571.2,103.4l-2.9,1.9c-1.3,0.9-3,0.7-4.2-0.3l-2.3-2l-0.2-0.1l0.2-0.2l2.1-1.6c1.2-0.9,2.9-0.9,4.1,0
			L571.2,103.4z"/>
		<g id="Ornament">
			<g>
				<path class="st1" d="M971.3,198.3c-2.1,1-4.2,2-6.4,3c-2.2,0.9-4.4,1.8-6.6,2.6c-4.5,1.6-9,2.9-13.6,4.1
					c-9.2,2.3-18.7,3.6-28.2,4.3c-9.5,0.6-19.1,0.5-28.6-0.2c-9.5-0.6-19-2.1-28.3-3.8c-2.3-0.5-4.7-1-7-1.4l-7-1.6
					c-4.6-1.2-9.2-2.4-13.7-3.7c-9.1-2.7-18.1-5.6-27-8.7c-17.8-6.3-35.1-13.4-52.5-19.8c-17.3-6.6-34.8-12.6-52.5-17.1
					c-8.8-2.3-17.8-4.2-26.8-5.6c-9-1.3-18.1-2.3-27.2-2.6c-18.2-0.7-36.6,0.5-54.7,3.9c-9.1,1.5-18,3.9-26.9,6.5l-3.3,1
					c-1.1,0.3-2.2,0.7-3.3,1.1c-2.2,0.8-4.4,1.5-6.6,2.3c-2.2,0.8-4.4,1.6-6.5,2.5l-6.4,2.8l0,0c-0.2,0.1-0.4,0-0.5-0.2
					c-0.1-0.2,0-0.4,0.2-0.5c16.5-8.9,34.2-15.4,52.5-19.6c9.1-2.1,18.4-3.6,27.7-4.7c9.3-1,18.7-1.4,28-1.3
					c18.7,0.1,37.4,2.8,55.6,7.2c18.2,4.4,36,10.4,53.5,16.9c17.5,6.6,34.8,13.7,52.3,20.2c17.5,6.5,35.3,12.3,53.5,16.4
					c18.2,4.1,36.8,6.3,55.5,5.9c18.6-0.4,37.3-3.4,54.6-10.5c0.2-0.1,0.4,0,0.5,0.2C971.6,198,971.5,198.2,971.3,198.3L971.3,198.3
					z"/>
			</g>
			<g>
				<path class="st1" d="M684.6,118.5c-0.5,7-2.7,13.9-5.6,20.4c-1.5,3.2-3.3,6.3-5.3,9.4c-0.9,1.5-2.1,2.9-3.1,4.4
					c-1.1,1.4-2.3,2.8-3.4,4.2c-9.4,11-21.5,19.6-34.6,25.6c-13.1,6-27.2,9.4-41.3,10.4c-14.1,1-28.4-0.2-41.6-4.6l-0.1,0
					c-0.2-0.1-0.3-0.3-0.2-0.5c0.1-0.2,0.2-0.3,0.4-0.3c6.8,0.7,13.6,1,20.4,0.9c6.8-0.1,13.6-0.7,20.3-1.7c13.4-2,26.6-5.7,39-11.4
					c12.3-5.6,23.8-13.2,33.4-22.8c4.8-4.8,9-10.1,12.6-15.9c3.6-5.7,6.5-11.9,8.5-18.4c0.1-0.2,0.3-0.3,0.5-0.3
					C684.6,118,684.7,118.2,684.6,118.5L684.6,118.5z"/>
			</g>
			<g>
				<path class="st1" d="M532.7,150.9c0.3-4.1,2.1-8.3,4.8-11.7c2.7-3.4,6.3-6.3,10.3-8.4c4-2.1,8.4-3.5,12.9-4.2
					c4.5-0.7,9.2-0.8,14,0l0.2,0c3.2,0.5,5.5,3.6,4.9,6.8c-0.5,3.2-3.6,5.5-6.8,4.9c-0.5-0.1-1-0.2-1.4-0.4
					c-3.2-1.4-6.8-2.2-10.5-2.5c-3.7-0.3-7.5-0.1-11.2,0.8c-3.7,0.9-7.2,2.5-10.3,4.9C536.6,143.7,534,147,532.7,150.9z"/>
			</g>
			<g>
				<path class="st1" d="M971.2,175.3c-4.3,4.8-9.4,8.8-15,12.1c-5.6,3.3-11.7,5.9-18,7.9c-6.3,1.9-12.9,3.2-19.5,3.8
					c-6.7,0.6-13.5,0.5-20.3-0.5l0,0c-3.2-0.5-5.5-3.5-5-6.7c0.5-3.2,3.5-5.5,6.7-5c0.3,0,0.6,0.1,0.9,0.2c11.3,3.5,23.8,4.2,36,2.5
					c6.1-0.9,12.2-2.5,18-4.8C960.7,182.4,966.2,179.3,971.2,175.3z"/>
			</g>
			<g>
				<path class="st1" d="M838.6,173.1c-1.5,0.5-3.1,0.9-4.6,1.2c-1.6,0.3-3.1,0.5-4.7,0.8c-0.8,0.1-1.6,0.2-2.4,0.2
					c-0.8,0.1-1.6,0.1-2.4,0.1c-1.6,0.1-3.2,0.1-4.9,0c-6.5-0.2-12.9-1.4-19.1-3.1c-6.2-1.7-12.3-4.1-18-6.8
					c-2.9-1.3-5.7-2.8-8.5-4.2l-8.2-4.4c-10.7-6-20.9-12-31.7-16.5c-10.8-4.5-22.1-7.9-34.6-8.9l-0.1,0c-0.2,0-0.4-0.2-0.4-0.4
					c0-0.2,0.2-0.3,0.3-0.4c3.1-0.4,6.2-0.7,9.3-0.8c3.1,0,6.2,0.1,9.3,0.5c6.2,0.7,12.2,2.1,18.1,4c11.8,3.7,22.8,9.6,33.6,15.6
					c10.7,6,21.4,12.2,32.9,16.4c5.7,2.1,11.7,3.8,17.7,4.8c3,0.5,6.1,0.9,9.1,1.1c3.1,0.2,6.1,0.2,9.2,0c0.2,0,0.4,0.2,0.4,0.4
					C839,172.9,838.9,173,838.6,173.1L838.6,173.1z"/>
			</g>
			<g>
				<path class="st1" d="M89,197.6c17.3,7.1,36,10.1,54.6,10.5c18.6,0.4,37.3-1.8,55.5-5.9c18.2-4.1,36-9.9,53.5-16.4
					c17.5-6.5,34.8-13.6,52.3-20.2c17.5-6.5,35.3-12.5,53.5-16.9c18.2-4.4,36.9-7.1,55.6-7.2c9.4-0.1,18.7,0.3,28,1.3
					c9.3,1,18.6,2.6,27.7,4.7c18.2,4.2,36,10.7,52.5,19.6c0.2,0.1,0.3,0.3,0.2,0.5c-0.1,0.2-0.3,0.3-0.5,0.2l0,0l-6.4-2.8
					c-2.1-0.9-4.4-1.7-6.5-2.5c-2.1-0.9-4.4-1.6-6.6-2.3c-1.1-0.4-2.2-0.8-3.3-1.1l-3.3-1c-8.9-2.7-17.8-5-26.9-6.5
					c-18.1-3.3-36.5-4.6-54.7-3.9c-9.1,0.4-18.2,1.3-27.2,2.6c-9,1.4-17.9,3.3-26.8,5.6c-17.7,4.5-35.2,10.5-52.5,17.1
					c-17.4,6.4-34.7,13.5-52.5,19.8c-8.9,3.1-17.9,6.1-27,8.7c-4.6,1.3-9.1,2.6-13.7,3.7l-7,1.6c-2.3,0.5-4.7,1-7,1.4
					c-9.4,1.8-18.8,3.2-28.3,3.8c-9.5,0.6-19.1,0.8-28.6,0.2c-9.5-0.7-19-2-28.2-4.3c-4.6-1.1-9.2-2.5-13.6-4.1
					c-2.2-0.8-4.4-1.8-6.6-2.6c-2.2-0.9-4.3-2-6.4-3l0,0c-0.2-0.1-0.3-0.3-0.2-0.5C88.5,197.6,88.8,197.5,89,197.6z"/>
			</g>
			<g>
				<path class="st1" d="M376.1,118.2c2,6.5,4.9,12.7,8.5,18.4c3.6,5.7,7.8,11.1,12.6,15.9c9.6,9.6,21,17.2,33.4,22.8
					c12.3,5.7,25.5,9.4,39,11.4c6.7,1,13.5,1.5,20.3,1.7c6.8,0.2,13.6-0.1,20.4-0.9c0.2,0,0.4,0.1,0.4,0.3c0,0.2-0.1,0.4-0.3,0.4
					l-0.1,0c-13.3,4.4-27.5,5.7-41.6,4.6c-14.1-1-28.2-4.4-41.3-10.4c-13.1-6-25.2-14.6-34.6-25.6c-1.1-1.4-2.3-2.8-3.4-4.2
					c-1.1-1.5-2.2-2.9-3.1-4.4c-1.9-3.1-3.7-6.2-5.3-9.4c-3-6.5-5.1-13.4-5.6-20.4l0-0.1c0-0.2,0.1-0.4,0.4-0.4
					C375.9,117.9,376.1,118.1,376.1,118.2z"/>
			</g>
			<g>
				<path class="st1" d="M527.3,150.9c-1.3-4-3.8-7.2-6.9-9.6c-3.1-2.4-6.6-4-10.3-4.9c-3.7-0.9-7.5-1.1-11.2-0.8
					c-3.7,0.3-7.3,1.2-10.5,2.5c-3,1.3-6.5-0.1-7.8-3.1s0.1-6.5,3.1-7.8c0.4-0.2,0.9-0.3,1.4-0.4l0.2,0c4.8-0.8,9.5-0.7,14,0
					c4.5,0.7,8.9,2.1,12.9,4.2c4,2.1,7.6,4.9,10.3,8.4C525.2,142.7,527,146.8,527.3,150.9z"/>
			</g>
			<g>
				<path class="st1" d="M88.8,175.3c4.9,4,10.5,7.1,16.3,9.4c5.8,2.3,11.9,3.9,18,4.8c12.2,1.8,24.7,1,36-2.5
					c3.1-1,6.4,0.8,7.4,3.9s-0.8,6.4-3.9,7.4c-0.3,0.1-0.6,0.2-0.9,0.2l-0.1,0c-6.8,1-13.6,1.1-20.3,0.5c-6.7-0.6-13.2-1.9-19.5-3.8
					c-6.3-2-12.4-4.6-18-7.9C98.2,184.1,93.1,180,88.8,175.3z"/>
			</g>
			<g>
				<path class="st1" d="M221.4,172.3c3.1,0.2,6.1,0.2,9.2,0c3.1-0.2,6.1-0.6,9.1-1.1c6-1,11.9-2.7,17.7-4.8
					c11.5-4.2,22.2-10.3,32.9-16.4c10.8-6,21.7-11.8,33.6-15.6c5.9-1.9,12-3.3,18.1-4c3.1-0.3,6.2-0.5,9.3-0.5
					c3.1,0,6.2,0.3,9.3,0.8c0.2,0,0.4,0.2,0.3,0.4c0,0.2-0.2,0.3-0.4,0.3l-0.1,0c-12.5,1-23.8,4.4-34.6,8.9
					c-10.8,4.5-21,10.5-31.7,16.5l-8.2,4.4c-2.8,1.4-5.6,2.9-8.5,4.2c-5.7,2.7-11.8,5.1-18,6.8c-6.2,1.7-12.7,2.9-19.1,3.1
					c-1.6,0-3.2,0-4.9,0c-0.8,0-1.6-0.1-2.4-0.1c-0.8-0.1-1.6-0.1-2.4-0.2c-1.6-0.2-3.2-0.4-4.7-0.8c-1.6-0.3-3.1-0.7-4.6-1.2
					l-0.1,0c-0.2-0.1-0.3-0.3-0.3-0.5C221.1,172.4,221.2,172.3,221.4,172.3z"/>
			</g>
		</g>
	</g>
	<g>
		<path class="st1" d="M331.3,207h-10.1c-0.5,0-0.8-0.1-1.2-0.3c-0.8-0.5-1.2-1.4-1.2-2.6c0-1,0.3-1.8,0.9-2.4
			c0.4-0.4,0.9-0.6,1.5-0.6H348c0.5,0,0.9,0.1,1.3,0.4c0.7,0.5,1.1,1.4,1.1,2.5c0,1.1-0.3,1.9-1,2.4c-0.4,0.3-0.9,0.5-1.4,0.5h-10.1
			v27c0,0.8-0.3,1.4-0.8,1.9c-0.6,0.5-1.5,0.8-2.5,0.8c-1.4,0-2.4-0.5-2.9-1.4c-0.2-0.4-0.4-0.9-0.4-1.4V207z"/>
		<path class="st1" d="M362.2,234.6l-10-19.5c-0.2-0.4-0.3-0.8-0.3-1.3c0-1.1,0.6-1.9,1.7-2.5c0.5-0.3,1.1-0.4,1.6-0.4
			c1.3,0,2.3,0.7,3,2.1l7.3,15.5l6.6-15.5c0.6-1.4,1.5-2.1,2.8-2.1c0.7,0,1.3,0.2,1.9,0.5c1,0.5,1.5,1.3,1.5,2.3
			c0,0.5-0.1,1-0.4,1.5l-14.2,29.8c-0.7,1.4-1.6,2.1-2.9,2.1c-0.4,0-0.8-0.1-1.2-0.2c-1.3-0.4-1.9-1.2-1.9-2.5
			c0-0.4,0.1-0.8,0.3-1.2L362.2,234.6z"/>
		<path class="st1" d="M389.1,233.8v10.9c0,0.6-0.2,1.1-0.6,1.6c-0.6,0.7-1.4,1-2.5,1c-1.2,0-2.1-0.4-2.6-1.3
			c-0.2-0.4-0.4-0.8-0.4-1.3v-31.1c0-0.7,0.2-1.3,0.5-1.7c0.5-0.6,1.1-0.9,2-0.9c1.4,0,2.3,0.8,2.6,2.2l0.4,2
			c0.6-1.2,1.5-2.1,2.6-2.9c1.6-1,3.4-1.6,5.5-1.6c4,0,7.1,1.6,9.2,4.8c1.5,2.3,2.3,5.1,2.3,8.3c0,3.2-0.8,5.9-2.5,8.3
			c-2.3,3.2-5.3,4.8-9.2,4.8C393.2,237,390.7,235.9,389.1,233.8z M389,223.5v1.9c0,1.8,0.6,3.3,1.9,4.6c1.3,1.3,2.8,1.9,4.5,1.9
			c2,0,3.6-0.8,4.8-2.5c1-1.5,1.6-3.3,1.6-5.4c0-2.2-0.5-4-1.5-5.5c-1.2-1.7-2.8-2.6-4.9-2.6c-1.8,0-3.3,0.8-4.5,2.3
			C389.7,219.7,389,221.5,389,223.5z"/>
		<path class="st1" d="M418.2,225.3c0.1,1.9,0.8,3.4,2,4.6c1.4,1.3,3.1,1.9,5.2,1.9c2.4,0,4.4-0.9,6-2.6c0.5-0.5,1-0.7,1.6-0.7
			c0.7,0,1.3,0.3,1.9,0.9c0.5,0.5,0.8,1.2,0.8,1.9c0,0.9-0.4,1.7-1.3,2.5c-2.2,2.1-5.3,3.2-9.3,3.2c-3.4,0-6.3-1-8.6-2.9
			c-3-2.5-4.6-5.9-4.6-10.3c0-3.3,0.9-6.1,2.6-8.4c2.4-3.2,5.7-4.9,10-4.9c3.5,0,6.5,1.3,8.8,3.9c2,2.2,2.9,4.7,2.9,7.4
			c0,1.2-0.2,2.1-0.7,2.6c-0.5,0.5-1.3,0.8-2.4,0.8H418.2z M418.3,220.6h11c0.5,0,0.7-0.2,0.7-0.6c0-0.8-0.4-1.7-1.1-2.6
			c-1.1-1.3-2.6-2-4.5-2c-1.2,0-2.2,0.3-3.3,0.9C419.6,217.3,418.6,218.8,418.3,220.6z"/>
		<path class="st1" d="M449.4,203.4v26c0,0.7,0.3,1,1,1h15.4c0.5,0,0.9,0.1,1.2,0.3c0.8,0.5,1.2,1.4,1.2,2.6c0,1-0.3,1.8-0.9,2.4
			c-0.4,0.4-0.9,0.6-1.5,0.6h-18c-3.3,0-5-1.7-5-5v-27.8c0-1.1,0.5-1.8,1.5-2.3c0.6-0.3,1.2-0.4,1.8-0.4c0.9,0,1.7,0.2,2.3,0.7
			C449,201.9,449.4,202.6,449.4,203.4z"/>
		<path class="st1" d="M483.2,210.7c3.5,0,6.4,1.2,8.7,3.5c2.4,2.5,3.6,5.7,3.6,9.7c0,3.1-0.7,5.8-2.2,8.1
			c-2.3,3.5-5.6,5.2-10.1,5.2c-3.9,0-7-1.4-9.3-4.1c-2-2.4-3-5.4-3-9.2c0-4,1.2-7.2,3.6-9.6C476.7,211.8,479.6,210.7,483.2,210.7z
			 M483.1,215.7c-2,0-3.5,0.9-4.7,2.6c-1,1.4-1.4,3.3-1.4,5.5c0,1.7,0.3,3.1,0.8,4.4c1.1,2.5,2.9,3.7,5.4,3.7c2,0,3.6-0.8,4.7-2.5
			c1-1.5,1.4-3.3,1.4-5.6c0-2.3-0.5-4.1-1.5-5.6C486.7,216.6,485.1,215.7,483.1,215.7z"/>
		<path class="st1" d="M512.2,210.7c3.4,0,6,1,8,2.9c1,1,1.5,2,1.5,3c0,0.8-0.3,1.4-0.9,2c-0.6,0.5-1.2,0.7-1.9,0.7
			c-0.8,0-1.5-0.3-2-1c-1.3-1.6-2.9-2.4-4.7-2.4c-2,0-3.7,0.9-4.9,2.6c-1,1.5-1.6,3.3-1.6,5.4c0,2.2,0.6,4,1.8,5.5
			c1.3,1.6,2.9,2.4,4.8,2.4c1.8,0,3.5-0.9,5-2.8c0.5-0.6,1.1-0.9,1.8-0.9c0.7,0,1.3,0.3,1.9,0.8c0.7,0.6,1.1,1.4,1.1,2.3
			c0,0.8-0.4,1.7-1.1,2.5c-2,2.3-4.9,3.4-8.7,3.4c-3.9,0-7.1-1.3-9.5-3.9c-2.3-2.5-3.4-5.6-3.4-9.4c0-2.4,0.5-4.7,1.6-6.7
			c1.7-3.1,4.3-5.2,7.7-6C509.8,210.8,511,210.7,512.2,210.7z"/>
		<path class="st1" d="M533.8,227.6v6.6c0,0.8-0.3,1.4-0.8,1.8c-0.6,0.5-1.4,0.8-2.2,0.8c-1.3,0-2.2-0.5-2.7-1.4
			c-0.2-0.3-0.3-0.7-0.3-1.2v-31c0-0.6,0.2-1.1,0.6-1.6c0.6-0.6,1.4-1,2.4-1c1.3,0,2.2,0.4,2.7,1.3c0.2,0.4,0.3,0.8,0.3,1.2v17.5
			l10.4-8.8c0.7-0.6,1.4-0.9,2.2-0.9c0.7,0,1.3,0.3,1.9,0.8c0.7,0.7,1,1.4,1,2.2s-0.3,1.5-1,2l-7.4,5.9l8.6,9.4
			c0.6,0.7,0.9,1.4,0.9,2.2c0,1-0.4,1.8-1.1,2.3c-0.7,0.5-1.5,0.8-2.2,0.8c-0.9,0-1.7-0.4-2.3-1.2l-8.2-10.1L533.8,227.6z"/>
		<path class="st1" d="M583.3,200.4c3.1,0,5.8,0.7,8.3,2.1c2.3,1.3,3.5,2.7,3.5,4.2c0,0.8-0.3,1.4-0.8,2c-0.6,0.6-1.4,1-2.3,1
			c-0.8,0-1.6-0.4-2.5-1.2c-1.8-1.7-3.9-2.6-6.2-2.6c-1.8,0-3.3,0.3-4.4,0.9c-1.3,0.7-1.9,1.8-1.9,3.2c0,1.2,0.6,2.3,1.8,3.1
			c0.9,0.6,3,1.4,6.3,2.4c4.3,1.3,7.2,2.5,8.8,3.8c2.3,1.9,3.5,4.3,3.5,7.2c0,3.4-1.4,6.1-4.1,8.1c-2.5,1.7-5.7,2.6-9.7,2.6
			c-3.8,0-7.1-0.9-9.9-2.7c-2.7-1.7-4.1-3.4-4.1-5c0-0.7,0.2-1.3,0.7-1.8c0.6-0.8,1.4-1.1,2.3-1.1c0.7,0,1.3,0.2,1.9,0.6
			c0.2,0.1,0.5,0.5,1,1c2.4,2.3,5.1,3.5,8.1,3.5c2,0,3.7-0.4,5-1.1c1.4-0.8,2.1-2,2.1-3.4c0-1.5-0.7-2.7-2.2-3.7
			c-1-0.6-3.1-1.4-6.5-2.5c-3.6-1.1-6.2-2.3-8-3.5c-2.2-1.5-3.3-3.8-3.3-6.9c0-2.5,0.9-4.6,2.6-6.4
			C575.5,201.6,578.9,200.4,583.3,200.4z"/>
		<path class="st1" d="M610.7,234.6l-10-19.5c-0.2-0.4-0.3-0.8-0.3-1.3c0-1.1,0.6-1.9,1.7-2.5c0.5-0.3,1.1-0.4,1.6-0.4
			c1.3,0,2.3,0.7,3,2.1l7.3,15.5l6.6-15.5c0.6-1.4,1.5-2.1,2.8-2.1c0.7,0,1.3,0.2,1.9,0.5c1,0.5,1.5,1.3,1.5,2.3
			c0,0.5-0.1,1-0.4,1.5l-14.2,29.8c-0.7,1.4-1.6,2.1-2.9,2.1c-0.4,0-0.8-0.1-1.2-0.2c-1.3-0.4-1.9-1.2-1.9-2.5
			c0-0.4,0.1-0.8,0.3-1.2L610.7,234.6z"/>
		<path class="st1" d="M640.4,210.7c3.4,0,6.1,0.7,8.2,2.1c1.1,0.8,1.7,1.7,1.7,2.7c0,0.6-0.2,1.2-0.6,1.7c-0.5,0.7-1.2,1.1-2.1,1.1
			c-0.6,0-1.2-0.3-1.9-0.8c-1.6-1.2-3.4-1.9-5.3-1.9c-2.5,0-3.8,0.7-3.8,2.2c0,0.8,0.5,1.5,1.4,2c0.3,0.1,0.8,0.3,1.5,0.6
			c4.2,1.3,6.9,2.2,7.9,2.7c2.6,1.3,3.9,3.4,3.9,6.2c0,2.6-1,4.7-3.1,6.1c-1.8,1.2-4.3,1.8-7.4,1.8c-3.6,0-6.5-0.8-8.8-2.4
			c-1.5-1.1-2.2-2.2-2.2-3.3c0-0.5,0.2-1.1,0.5-1.6c0.5-0.7,1.2-1.1,2-1.1c0.7,0,1.3,0.3,1.9,0.8c1.8,1.7,4,2.5,6.7,2.5
			c2.8,0,4.2-0.8,4.2-2.2c0-1-0.7-1.9-2.1-2.6c-0.9-0.4-3.1-1.2-6.5-2.2c-3.8-1.1-5.6-3.4-5.6-6.9c0-2.7,1.3-4.7,3.9-6.1
			C636,211.1,638,210.7,640.4,210.7z"/>
		<path class="st1" d="M661.1,211.5v-5.3c0-0.7,0.2-1.2,0.6-1.7c0.6-0.7,1.4-1,2.4-1c1.2,0,2.1,0.4,2.6,1.3c0.2,0.4,0.4,0.8,0.4,1.3
			v5.3h4.9c0.6,0,1,0.2,1.4,0.6c0.4,0.5,0.7,1.1,0.7,1.9c0,1-0.4,1.7-1.1,2.2c-0.3,0.2-0.6,0.3-1,0.3h-4.9v17.7
			c0,0.6-0.2,1.2-0.6,1.6c-0.6,0.7-1.4,1-2.5,1c-1.2,0-2.1-0.4-2.6-1.3c-0.2-0.4-0.4-0.8-0.4-1.3v-17.7h-4.9c-0.5,0-0.9-0.1-1.2-0.4
			c-0.6-0.5-0.8-1.2-0.8-2.1c0-1,0.4-1.8,1.1-2.2c0.3-0.2,0.6-0.3,1-0.3H661.1z"/>
		<path class="st1" d="M683.1,225.3c0.1,1.9,0.8,3.4,2,4.6c1.4,1.3,3.1,1.9,5.2,1.9c2.4,0,4.4-0.9,6-2.6c0.5-0.5,1-0.7,1.6-0.7
			c0.7,0,1.3,0.3,1.9,0.9c0.5,0.5,0.8,1.2,0.8,1.9c0,0.9-0.4,1.7-1.3,2.5c-2.2,2.1-5.3,3.2-9.3,3.2c-3.4,0-6.3-1-8.6-2.9
			c-3-2.5-4.6-5.9-4.6-10.3c0-3.3,0.9-6.1,2.6-8.4c2.4-3.2,5.7-4.9,10-4.9c3.5,0,6.5,1.3,8.8,3.9c2,2.2,2.9,4.7,2.9,7.4
			c0,1.2-0.2,2.1-0.7,2.6c-0.5,0.5-1.3,0.8-2.4,0.8H683.1z M683.2,220.6h11c0.5,0,0.7-0.2,0.7-0.6c0-0.8-0.4-1.7-1.1-2.6
			c-1.1-1.3-2.6-2-4.5-2c-1.2,0-2.2,0.3-3.3,0.9C684.4,217.3,683.5,218.8,683.2,220.6z"/>
		<path class="st1" d="M712.7,214.8c1.5-2.7,3.8-4,6.9-4c1.6,0,3,0.4,4.1,1.3c1,0.7,1.7,1.6,2.1,2.9c1.8-2.8,4.3-4.2,7.7-4.2
			c2.9,0,5.1,1.3,6.4,3.9c0.8,1.6,1.2,3.5,1.2,5.8v13.8c0,0.7-0.2,1.2-0.7,1.7c-0.6,0.6-1.4,0.9-2.4,0.9c-1.3,0-2.2-0.5-2.7-1.5
			c-0.2-0.3-0.2-0.7-0.2-1.1v-13.2c0-1.1-0.2-2.1-0.6-2.9c-0.6-1.4-1.5-2-2.8-2c-1.1,0-2.2,0.6-3.2,1.7c-1,1.2-1.6,2.6-1.6,4.1v12.3
			c0,0.6-0.2,1.1-0.6,1.6c-0.6,0.6-1.4,0.9-2.4,0.9c-1.2,0-2.1-0.4-2.7-1.3c-0.2-0.3-0.3-0.7-0.3-1.2v-13c0-1.3-0.2-2.4-0.6-3.3
			c-0.6-1.2-1.4-1.9-2.6-1.9c-1.2,0-2.3,0.6-3.3,1.9c-1,1.3-1.5,2.7-1.5,4.3v12c0,0.6-0.2,1.1-0.6,1.6c-0.6,0.7-1.4,1-2.4,1
			c-1.3,0-2.2-0.5-2.7-1.4c-0.2-0.3-0.3-0.7-0.3-1.1v-20.8c0-0.6,0.2-1.2,0.6-1.6c0.5-0.5,1.1-0.8,1.9-0.8c1.7,0,2.6,0.8,2.8,2.5
			L712.7,214.8z"/>
	</g>
</g>
</svg>
